<?xml version="1.0" standalone="no"?>
<!DOCTYPE svg PUBLIC "-//W3C//DTD SVG 20010904//EN"
 "http://www.w3.org/TR/2001/REC-SVG-20010904/DTD/svg10.dtd">
<svg version="1.0" xmlns="http://www.w3.org/2000/svg"
 width="150.000000pt" height="150.000000pt" viewBox="0 0 150.000000 150.000000"
 preserveAspectRatio="xMidYMid meet">
<metadata>
Created by potrace 1.11, written by Peter Selinger 2001-2013
</metadata>
<g transform="translate(0.000000,150.000000) scale(0.100000,-0.100000)"
fill="#000000" stroke="none">
<path d="M631 1386 c-9 -11 -8 -17 4 -29 11 -12 13 -22 5 -41 -5 -15 -8 -74
-7 -132 3 -81 0 -107 -10 -111 -7 -3 -13 -14 -13 -24 0 -10 -4 -19 -9 -19 -20
0 -99 -82 -122 -127 -13 -26 -34 -56 -46 -66 -24 -19 -33 -87 -13 -87 6 0 10
-28 10 -65 0 -107 45 -197 116 -234 21 -10 22 -18 23 -138 1 -128 1 -128 30
-155 24 -21 38 -26 70 -24 54 4 54 -16 1 -37 -29 -11 -44 -25 -54 -49 -8 -18
-12 -36 -10 -40 3 -5 97 -8 210 -8 225 0 223 0 187 61 -18 30 -51 48 -95 51
-19 2 -28 8 -28 20 0 10 -4 18 -8 18 -5 0 -8 21 -7 46 1 25 -2 71 -6 102 -5
31 -11 78 -14 104 l-6 46 46 23 c53 27 118 87 142 133 13 24 17 59 17 156 0
106 -3 134 -22 182 -41 101 -102 139 -234 143 -36 2 -70 5 -76 9 -11 6 -32 81
-38 139 -5 37 -4 38 18 27 22 -11 22 -10 4 4 -11 9 -23 16 -27 16 -13 0 0 52
16 64 14 10 15 16 6 34 -13 25 -43 29 -60 8z"/>
<path d="M695 1230 c-3 -6 1 -7 9 -4 18 7 21 14 7 14 -6 0 -13 -4 -16 -10z"/>
</g>
</svg>
